<svg width="312" height="88" viewBox="0 0 312 88" fill="none" xmlns="http://www.w3.org/2000/svg">
<rect width="312" height="88" rx="16" fill="#4865FF"/>
<path d="M89.399 40.2L86.123 50H84.653L81.979 42.174L79.305 50H77.807L74.531 40.2H75.973L78.619 48.166L81.377 40.2H82.665L85.367 48.208L88.069 40.2H89.399ZM97.0611 46.332C97.0611 46.4347 97.0517 46.57 97.0331 46.738H91.0131C91.0971 47.3913 91.3817 47.9187 91.8671 48.32C92.3617 48.712 92.9731 48.908 93.7011 48.908C94.5877 48.908 95.3017 48.6093 95.8431 48.012L96.5851 48.88C96.2491 49.272 95.8291 49.5707 95.3251 49.776C94.8304 49.9813 94.2751 50.084 93.6591 50.084C92.8751 50.084 92.1797 49.9253 91.5731 49.608C90.9664 49.2813 90.4951 48.8287 90.1591 48.25C89.8324 47.6713 89.6691 47.018 89.6691 46.29C89.6691 45.5713 89.8277 44.9227 90.1451 44.344C90.4717 43.7653 90.9151 43.3173 91.4751 43C92.0444 42.6733 92.6837 42.51 93.3931 42.51C94.1024 42.51 94.7324 42.6733 95.2831 43C95.8431 43.3173 96.2771 43.7653 96.5851 44.344C96.9024 44.9227 97.0611 45.5853 97.0611 46.332ZM93.3931 43.644C92.7491 43.644 92.2077 43.84 91.7691 44.232C91.3397 44.624 91.0877 45.1373 91.0131 45.772H95.7731C95.6984 45.1467 95.4417 44.638 95.0031 44.246C94.5737 43.8447 94.0371 43.644 93.3931 43.644ZM98.9273 39.612H100.271V50H98.9273V39.612ZM106.071 50.084C105.315 50.084 104.639 49.9207 104.041 49.594C103.453 49.2673 102.991 48.8193 102.655 48.25C102.319 47.6713 102.151 47.018 102.151 46.29C102.151 45.562 102.319 44.9133 102.655 44.344C102.991 43.7653 103.453 43.3173 104.041 43C104.639 42.6733 105.315 42.51 106.071 42.51C106.743 42.51 107.341 42.6453 107.863 42.916C108.395 43.1867 108.806 43.5787 109.095 44.092L108.073 44.75C107.84 44.3953 107.551 44.1293 107.205 43.952C106.86 43.7747 106.477 43.686 106.057 43.686C105.572 43.686 105.133 43.7933 104.741 44.008C104.359 44.2227 104.055 44.5307 103.831 44.932C103.617 45.324 103.509 45.7767 103.509 46.29C103.509 46.8127 103.617 47.2747 103.831 47.676C104.055 48.068 104.359 48.3713 104.741 48.586C105.133 48.8007 105.572 48.908 106.057 48.908C106.477 48.908 106.86 48.8193 107.205 48.642C107.551 48.4647 107.84 48.1987 108.073 47.844L109.095 48.488C108.806 49.0013 108.395 49.398 107.863 49.678C107.341 49.9487 106.743 50.084 106.071 50.084ZM113.904 50.084C113.167 50.084 112.504 49.9207 111.916 49.594C111.328 49.2673 110.866 48.8193 110.53 48.25C110.203 47.6713 110.04 47.018 110.04 46.29C110.04 45.562 110.203 44.9133 110.53 44.344C110.866 43.7653 111.328 43.3173 111.916 43C112.504 42.6733 113.167 42.51 113.904 42.51C114.641 42.51 115.299 42.6733 115.878 43C116.466 43.3173 116.923 43.7653 117.25 44.344C117.586 44.9133 117.754 45.562 117.754 46.29C117.754 47.018 117.586 47.6713 117.25 48.25C116.923 48.8193 116.466 49.2673 115.878 49.594C115.299 49.9207 114.641 50.084 113.904 50.084ZM113.904 48.908C114.38 48.908 114.805 48.8007 115.178 48.586C115.561 48.362 115.859 48.054 116.074 47.662C116.289 47.2607 116.396 46.8033 116.396 46.29C116.396 45.7767 116.289 45.324 116.074 44.932C115.859 44.5307 115.561 44.2227 115.178 44.008C114.805 43.7933 114.38 43.686 113.904 43.686C113.428 43.686 112.999 43.7933 112.616 44.008C112.243 44.2227 111.944 44.5307 111.72 44.932C111.505 45.324 111.398 45.7767 111.398 46.29C111.398 46.8033 111.505 47.2607 111.72 47.662C111.944 48.054 112.243 48.362 112.616 48.586C112.999 48.8007 113.428 48.908 113.904 48.908ZM128.895 42.51C129.828 42.51 130.566 42.7807 131.107 43.322C131.658 43.8633 131.933 44.666 131.933 45.73V50H130.589V45.884C130.589 45.1653 130.421 44.624 130.085 44.26C129.758 43.896 129.287 43.714 128.671 43.714C127.99 43.714 127.448 43.9287 127.047 44.358C126.646 44.778 126.445 45.3847 126.445 46.178V50H125.101V45.884C125.101 45.1653 124.933 44.624 124.597 44.26C124.27 43.896 123.799 43.714 123.183 43.714C122.502 43.714 121.96 43.9287 121.559 44.358C121.158 44.778 120.957 45.3847 120.957 46.178V50H119.613V42.58H120.901V43.686C121.172 43.3033 121.526 43.014 121.965 42.818C122.404 42.6127 122.903 42.51 123.463 42.51C124.042 42.51 124.555 42.6267 125.003 42.86C125.451 43.0933 125.796 43.434 126.039 43.882C126.319 43.4527 126.706 43.1167 127.201 42.874C127.705 42.6313 128.27 42.51 128.895 42.51ZM141.153 46.332C141.153 46.4347 141.144 46.57 141.125 46.738H135.105C135.189 47.3913 135.474 47.9187 135.959 48.32C136.454 48.712 137.065 48.908 137.793 48.908C138.68 48.908 139.394 48.6093 139.935 48.012L140.677 48.88C140.341 49.272 139.921 49.5707 139.417 49.776C138.922 49.9813 138.367 50.084 137.751 50.084C136.967 50.084 136.272 49.9253 135.665 49.608C135.058 49.2813 134.587 48.8287 134.251 48.25C133.924 47.6713 133.761 47.018 133.761 46.29C133.761 45.5713 133.92 44.9227 134.237 44.344C134.564 43.7653 135.007 43.3173 135.567 43C136.136 42.6733 136.776 42.51 137.485 42.51C138.194 42.51 138.824 42.6733 139.375 43C139.935 43.3173 140.369 43.7653 140.677 44.344C140.994 44.9227 141.153 45.5853 141.153 46.332ZM137.485 43.644C136.841 43.644 136.3 43.84 135.861 44.232C135.432 44.624 135.18 45.1373 135.105 45.772H139.865C139.79 45.1467 139.534 44.638 139.095 44.246C138.666 43.8447 138.129 43.644 137.485 43.644ZM150.951 49.566C150.755 49.734 150.512 49.8647 150.223 49.958C149.934 50.042 149.635 50.084 149.327 50.084C148.58 50.084 148.002 49.8833 147.591 49.482C147.18 49.0807 146.975 48.5067 146.975 47.76V43.686H145.715V42.58H146.975V40.956H148.319V42.58H150.447V43.686H148.319V47.704C148.319 48.1053 148.417 48.4133 148.613 48.628C148.818 48.8427 149.108 48.95 149.481 48.95C149.892 48.95 150.242 48.8333 150.531 48.6L150.951 49.566ZM155.508 50.084C154.77 50.084 154.108 49.9207 153.52 49.594C152.932 49.2673 152.47 48.8193 152.134 48.25C151.807 47.6713 151.644 47.018 151.644 46.29C151.644 45.562 151.807 44.9133 152.134 44.344C152.47 43.7653 152.932 43.3173 153.52 43C154.108 42.6733 154.77 42.51 155.508 42.51C156.245 42.51 156.903 42.6733 157.482 43C158.07 43.3173 158.527 43.7653 158.854 44.344C159.19 44.9133 159.358 45.562 159.358 46.29C159.358 47.018 159.19 47.6713 158.854 48.25C158.527 48.8193 158.07 49.2673 157.482 49.594C156.903 49.9207 156.245 50.084 155.508 50.084ZM155.508 48.908C155.984 48.908 156.408 48.8007 156.782 48.586C157.164 48.362 157.463 48.054 157.678 47.662C157.892 47.2607 158 46.8033 158 46.29C158 45.7767 157.892 45.324 157.678 44.932C157.463 44.5307 157.164 44.2227 156.782 44.008C156.408 43.7933 155.984 43.686 155.508 43.686C155.032 43.686 154.602 43.7933 154.22 44.008C153.846 44.2227 153.548 44.5307 153.324 44.932C153.109 45.324 153.002 45.7767 153.002 46.29C153.002 46.8033 153.109 47.2607 153.324 47.662C153.548 48.054 153.846 48.362 154.22 48.586C154.602 48.8007 155.032 48.908 155.508 48.908ZM171.43 50L169.428 47.13C169.344 47.1393 169.218 47.144 169.05 47.144H166.838V50H165.018V40.2H169.05C169.899 40.2 170.637 40.34 171.262 40.62C171.897 40.9 172.382 41.3013 172.718 41.824C173.054 42.3467 173.222 42.9673 173.222 43.686C173.222 44.4233 173.04 45.058 172.676 45.59C172.321 46.122 171.808 46.5187 171.136 46.78L173.39 50H171.43ZM171.388 43.686C171.388 43.0607 171.183 42.58 170.772 42.244C170.361 41.908 169.759 41.74 168.966 41.74H166.838V45.646H168.966C169.759 45.646 170.361 45.478 170.772 45.142C171.183 44.7967 171.388 44.3113 171.388 43.686ZM182.118 46.304C182.118 46.4253 182.109 46.598 182.09 46.822H176.224C176.327 47.3727 176.593 47.8113 177.022 48.138C177.461 48.4553 178.002 48.614 178.646 48.614C179.468 48.614 180.144 48.3433 180.676 47.802L181.614 48.88C181.278 49.2813 180.854 49.5847 180.34 49.79C179.827 49.9953 179.248 50.098 178.604 50.098C177.783 50.098 177.06 49.9347 176.434 49.608C175.809 49.2813 175.324 48.8287 174.978 48.25C174.642 47.662 174.474 46.9993 174.474 46.262C174.474 45.534 174.638 44.8807 174.964 44.302C175.3 43.714 175.762 43.2567 176.35 42.93C176.938 42.6033 177.601 42.44 178.338 42.44C179.066 42.44 179.715 42.6033 180.284 42.93C180.863 43.2473 181.311 43.7 181.628 44.288C181.955 44.8667 182.118 45.5387 182.118 46.304ZM178.338 43.84C177.778 43.84 177.302 44.008 176.91 44.344C176.528 44.6707 176.294 45.1093 176.21 45.66H180.452C180.378 45.1187 180.149 44.68 179.766 44.344C179.384 44.008 178.908 43.84 178.338 43.84ZM186.45 42.44C187.552 42.44 188.392 42.706 188.97 43.238C189.558 43.7607 189.852 44.554 189.852 45.618V50H188.2V49.09C187.986 49.4167 187.678 49.6687 187.276 49.846C186.884 50.014 186.408 50.098 185.848 50.098C185.288 50.098 184.798 50.0047 184.378 49.818C183.958 49.622 183.632 49.356 183.398 49.02C183.174 48.6747 183.062 48.2873 183.062 47.858C183.062 47.186 183.31 46.6493 183.804 46.248C184.308 45.8373 185.097 45.632 186.17 45.632H188.102V45.52C188.102 44.9973 187.944 44.596 187.626 44.316C187.318 44.036 186.856 43.896 186.24 43.896C185.82 43.896 185.405 43.9613 184.994 44.092C184.593 44.2227 184.252 44.4047 183.972 44.638L183.286 43.364C183.678 43.0653 184.15 42.8367 184.7 42.678C185.251 42.5193 185.834 42.44 186.45 42.44ZM186.212 48.824C186.651 48.824 187.038 48.726 187.374 48.53C187.72 48.3247 187.962 48.0353 188.102 47.662V46.794H186.296C185.288 46.794 184.784 47.1253 184.784 47.788C184.784 48.1053 184.91 48.3573 185.162 48.544C185.414 48.7307 185.764 48.824 186.212 48.824ZM195.597 50.098C194.822 50.098 194.127 49.9347 193.511 49.608C192.895 49.2813 192.414 48.8287 192.069 48.25C191.723 47.662 191.551 46.9993 191.551 46.262C191.551 45.5247 191.723 44.8667 192.069 44.288C192.414 43.7093 192.89 43.2567 193.497 42.93C194.113 42.6033 194.813 42.44 195.597 42.44C196.334 42.44 196.978 42.5893 197.529 42.888C198.089 43.1867 198.509 43.616 198.789 44.176L197.445 44.96C197.23 44.6147 196.959 44.358 196.633 44.19C196.315 44.0127 195.965 43.924 195.583 43.924C194.929 43.924 194.388 44.1387 193.959 44.568C193.529 44.988 193.315 45.5527 193.315 46.262C193.315 46.9713 193.525 47.5407 193.945 47.97C194.374 48.39 194.92 48.6 195.583 48.6C195.965 48.6 196.315 48.516 196.633 48.348C196.959 48.1707 197.23 47.9093 197.445 47.564L198.789 48.348C198.499 48.908 198.075 49.342 197.515 49.65C196.964 49.9487 196.325 50.098 195.597 50.098ZM204.475 42.44C205.418 42.44 206.174 42.7153 206.743 43.266C207.312 43.8167 207.597 44.6333 207.597 45.716V50H205.847V45.94C205.847 45.2867 205.693 44.7967 205.385 44.47C205.077 44.134 204.638 43.966 204.069 43.966C203.425 43.966 202.916 44.162 202.543 44.554C202.17 44.9367 201.983 45.492 201.983 46.22V50H200.233V39.612H201.983V43.392C202.272 43.084 202.627 42.8507 203.047 42.692C203.476 42.524 203.952 42.44 204.475 42.44ZM214.563 50.14C213.564 50.14 212.664 49.9253 211.861 49.496C211.058 49.0573 210.428 48.4553 209.971 47.69C209.514 46.9153 209.285 46.052 209.285 45.1C209.285 44.148 209.514 43.2893 209.971 42.524C210.428 41.7493 211.058 41.1473 211.861 40.718C212.664 40.2793 213.564 40.06 214.563 40.06C215.562 40.06 216.462 40.2793 217.265 40.718C218.068 41.1473 218.698 41.7447 219.155 42.51C219.612 43.2753 219.841 44.1387 219.841 45.1C219.841 46.0613 219.612 46.9247 219.155 47.69C218.698 48.4553 218.068 49.0573 217.265 49.496C216.462 49.9253 215.562 50.14 214.563 50.14ZM214.563 48.544C215.216 48.544 215.804 48.3993 216.327 48.11C216.85 47.8113 217.26 47.4007 217.559 46.878C217.858 46.346 218.007 45.7533 218.007 45.1C218.007 44.4467 217.858 43.8587 217.559 43.336C217.26 42.804 216.85 42.3933 216.327 42.104C215.804 41.8053 215.216 41.656 214.563 41.656C213.91 41.656 213.322 41.8053 212.799 42.104C212.276 42.3933 211.866 42.804 211.567 43.336C211.268 43.8587 211.119 44.4467 211.119 45.1C211.119 45.7533 211.268 46.346 211.567 46.878C211.866 47.4007 212.276 47.8113 212.799 48.11C213.322 48.3993 213.91 48.544 214.563 48.544ZM228.84 42.524V50H227.174V49.048C226.894 49.384 226.544 49.6453 226.124 49.832C225.704 50.0093 225.251 50.098 224.766 50.098C223.767 50.098 222.979 49.8227 222.4 49.272C221.831 48.712 221.546 47.886 221.546 46.794V42.524H223.296V46.556C223.296 47.228 223.445 47.732 223.744 48.068C224.052 48.3947 224.486 48.558 225.046 48.558C225.671 48.558 226.166 48.3667 226.53 47.984C226.903 47.592 227.09 47.032 227.09 46.304V42.524H228.84ZM235.625 49.594C235.42 49.762 235.168 49.888 234.869 49.972C234.58 50.056 234.272 50.098 233.945 50.098C233.124 50.098 232.489 49.8833 232.041 49.454C231.593 49.0247 231.369 48.3993 231.369 47.578V43.98H230.137V42.58H231.369V40.872H233.119V42.58H235.121V43.98H233.119V47.536C233.119 47.9 233.208 48.18 233.385 48.376C233.563 48.5627 233.819 48.656 234.155 48.656C234.547 48.656 234.874 48.5533 235.135 48.348L235.625 49.594Z" fill="white"/>
</svg>
