<svg width="168" height="208" viewBox="0 0 168 208" fill="none" xmlns="http://www.w3.org/2000/svg">
    <circle cx="83.5" cy="81.5" r="81.5" fill="#4865FF" />
    <path
        d="M103.712 128L86.432 103.04H85.408H67.36V128H46.624V38.4H85.408C93.344 38.4 100.213 39.7227 106.016 42.368C111.904 45.0133 116.427 48.768 119.584 53.632C122.741 58.496 124.32 64.256 124.32 70.912C124.32 77.568 122.699 83.328 119.456 88.192C116.299 92.9707 111.776 96.64 105.888 99.2L125.984 128H103.712ZM103.328 70.912C103.328 65.8773 101.707 62.0373 98.464 59.392C95.2213 56.6613 90.4853 55.296 84.256 55.296H67.36V86.528H84.256C90.4853 86.528 95.2213 85.1627 98.464 82.432C101.707 79.7013 103.328 75.8613 103.328 70.912Z"
        fill="white" />
    <path
        d="M14.1223 202L10.4983 196.84C10.0503 196.872 9.69832 196.888 9.44232 196.888H5.29032V202H2.89032V185.2H9.44232C11.6183 185.2 13.3303 185.72 14.5783 186.76C15.8263 187.8 16.4503 189.232 16.4503 191.056C16.4503 192.352 16.1303 193.456 15.4903 194.368C14.8503 195.28 13.9383 195.944 12.7543 196.36L16.7383 202H14.1223ZM9.37032 194.848C10.8903 194.848 12.0503 194.52 12.8503 193.864C13.6503 193.208 14.0503 192.272 14.0503 191.056C14.0503 189.84 13.6503 188.912 12.8503 188.272C12.0503 187.616 10.8903 187.288 9.37032 187.288H5.29032V194.848H9.37032ZM36.2878 195.712C36.2878 195.888 36.2718 196.12 36.2398 196.408H25.9198C26.0638 197.528 26.5518 198.432 27.3838 199.12C28.2318 199.792 29.2798 200.128 30.5278 200.128C32.0478 200.128 33.2718 199.616 34.1998 198.592L35.4718 200.08C34.8958 200.752 34.1758 201.264 33.3118 201.616C32.4638 201.968 31.5118 202.144 30.4558 202.144C29.1118 202.144 27.9198 201.872 26.8798 201.328C25.8398 200.768 25.0318 199.992 24.4558 199C23.8958 198.008 23.6158 196.888 23.6158 195.64C23.6158 194.408 23.8878 193.296 24.4318 192.304C24.9918 191.312 25.7518 190.544 26.7118 190C27.6878 189.44 28.7838 189.16 29.9998 189.16C31.2158 189.16 32.2958 189.44 33.2398 190C34.1998 190.544 34.9438 191.312 35.4718 192.304C36.0158 193.296 36.2878 194.432 36.2878 195.712ZM29.9998 191.104C28.8958 191.104 27.9678 191.44 27.2158 192.112C26.4798 192.784 26.0478 193.664 25.9198 194.752H34.0798C33.9518 193.68 33.5118 192.808 32.7598 192.136C32.0238 191.448 31.1038 191.104 29.9998 191.104ZM48.5676 189.16C50.3276 189.16 51.6716 189.592 52.5996 190.456C53.5436 191.32 54.0156 192.608 54.0156 194.32V202H51.8316V200.32C51.4476 200.912 50.8956 201.368 50.1756 201.688C49.4716 201.992 48.6316 202.144 47.6556 202.144C46.2316 202.144 45.0876 201.8 44.2236 201.112C43.3756 200.424 42.9516 199.52 42.9516 198.4C42.9516 197.28 43.3596 196.384 44.1756 195.712C44.9916 195.024 46.2876 194.68 48.0636 194.68H51.7116V194.224C51.7116 193.232 51.4236 192.472 50.8476 191.944C50.2716 191.416 49.4236 191.152 48.3036 191.152C47.5516 191.152 46.8156 191.28 46.0956 191.536C45.3756 191.776 44.7676 192.104 44.2716 192.52L43.3116 190.792C43.9676 190.264 44.7516 189.864 45.6636 189.592C46.5756 189.304 47.5436 189.16 48.5676 189.16ZM48.0396 200.368C48.9196 200.368 49.6796 200.176 50.3196 199.792C50.9596 199.392 51.4236 198.832 51.7116 198.112V196.336H48.1596C46.2076 196.336 45.2316 196.992 45.2316 198.304C45.2316 198.944 45.4796 199.448 45.9756 199.816C46.4716 200.184 47.1596 200.368 48.0396 200.368ZM68.6936 202.144C67.3976 202.144 66.2376 201.864 65.2136 201.304C64.2056 200.744 63.4136 199.976 62.8376 199C62.2616 198.008 61.9736 196.888 61.9736 195.64C61.9736 194.392 62.2616 193.28 62.8376 192.304C63.4136 191.312 64.2056 190.544 65.2136 190C66.2376 189.44 67.3976 189.16 68.6936 189.16C69.8456 189.16 70.8696 189.392 71.7656 189.856C72.6776 190.32 73.3816 190.992 73.8776 191.872L72.1256 193C71.7256 192.392 71.2296 191.936 70.6376 191.632C70.0456 191.328 69.3896 191.176 68.6696 191.176C67.8376 191.176 67.0856 191.36 66.4136 191.728C65.7576 192.096 65.2376 192.624 64.8536 193.312C64.4856 193.984 64.3016 194.76 64.3016 195.64C64.3016 196.536 64.4856 197.328 64.8536 198.016C65.2376 198.688 65.7576 199.208 66.4136 199.576C67.0856 199.944 67.8376 200.128 68.6696 200.128C69.3896 200.128 70.0456 199.976 70.6376 199.672C71.2296 199.368 71.7256 198.912 72.1256 198.304L73.8776 199.408C73.3816 200.288 72.6776 200.968 71.7656 201.448C70.8696 201.912 69.8456 202.144 68.6936 202.144ZM88.2885 189.16C89.9045 189.16 91.1845 189.632 92.1285 190.576C93.0885 191.504 93.5685 192.872 93.5685 194.68V202H91.2645V194.944C91.2645 193.712 90.9685 192.784 90.3765 192.16C89.7845 191.536 88.9365 191.224 87.8325 191.224C86.5845 191.224 85.6005 191.592 84.8805 192.328C84.1605 193.048 83.8005 194.088 83.8005 195.448V202H81.4965V184.192H83.8005V191.08C84.2805 190.472 84.9045 190 85.6725 189.664C86.4565 189.328 87.3285 189.16 88.2885 189.16ZM121.798 202.192C120.102 202.192 118.574 201.824 117.214 201.088C115.854 200.336 114.782 199.304 113.998 197.992C113.23 196.68 112.846 195.216 112.846 193.6C112.846 191.984 113.23 190.52 113.998 189.208C114.782 187.896 115.854 186.872 117.214 186.136C118.574 185.384 120.102 185.008 121.798 185.008C123.478 185.008 124.998 185.384 126.358 186.136C127.718 186.872 128.782 187.896 129.55 189.208C130.318 190.504 130.702 191.968 130.702 193.6C130.702 195.232 130.318 196.704 129.55 198.016C128.782 199.312 127.718 200.336 126.358 201.088C124.998 201.824 123.478 202.192 121.798 202.192ZM121.798 200.056C123.03 200.056 124.134 199.776 125.11 199.216C126.102 198.656 126.878 197.888 127.438 196.912C128.014 195.92 128.302 194.816 128.302 193.6C128.302 192.384 128.014 191.288 127.438 190.312C126.878 189.32 126.102 188.544 125.11 187.984C124.134 187.424 123.03 187.144 121.798 187.144C120.566 187.144 119.446 187.424 118.438 187.984C117.446 188.544 116.662 189.32 116.086 190.312C115.526 191.288 115.246 192.384 115.246 193.6C115.246 194.816 115.526 195.92 116.086 196.912C116.662 197.888 117.446 198.656 118.438 199.216C119.446 199.776 120.566 200.056 121.798 200.056ZM150.69 189.28V202H148.506V200.08C148.042 200.736 147.426 201.248 146.658 201.616C145.906 201.968 145.082 202.144 144.186 202.144C142.49 202.144 141.154 201.68 140.178 200.752C139.202 199.808 138.714 198.424 138.714 196.6V189.28H141.018V196.336C141.018 197.568 141.314 198.504 141.906 199.144C142.498 199.768 143.346 200.08 144.45 200.08C145.666 200.08 146.626 199.712 147.33 198.976C148.034 198.24 148.386 197.2 148.386 195.856V189.28H150.69ZM167.028 201.256C166.692 201.544 166.276 201.768 165.78 201.928C165.284 202.072 164.772 202.144 164.244 202.144C162.964 202.144 161.972 201.8 161.268 201.112C160.564 200.424 160.212 199.44 160.212 198.16V191.176H158.052V189.28H160.212V186.496H162.516V189.28H166.164V191.176H162.516V198.064C162.516 198.752 162.684 199.28 163.02 199.648C163.372 200.016 163.868 200.2 164.508 200.2C165.212 200.2 165.812 200 166.308 199.6L167.028 201.256Z"
        fill="black" />
</svg>
